<?xml version="1.0" encoding="UTF-8"?>
<!DOCTYPE svg PUBLIC "-//W3C//DTD SVG 1.1//EN" "http://www.w3.org/Graphics/SVG/1.1/DTD/svg11.dtd">
<svg xmlns="http://www.w3.org/2000/svg" version="1.1" width="666px" height="375px" style="shape-rendering:geometricPrecision; text-rendering:geometricPrecision; image-rendering:optimizeQuality; fill-rule:evenodd; clip-rule:evenodd" xmlns:xlink="http://www.w3.org/1999/xlink">
<g><path style="opacity:1" fill="#fe001e" d="M 333.5,-0.5 C 343.167,-0.5 352.833,-0.5 362.5,-0.5C 362.611,0.117425 362.944,0.617425 363.5,1C 366.827,1.61027 370.161,2.11027 373.5,2.5C 381.075,3.47217 388.075,5.8055 394.5,9.5C 394.414,10.4959 394.748,11.3292 395.5,12C 397.854,12.8471 400.188,13.6805 402.5,14.5C 408.348,17.015 413.348,20.6817 417.5,25.5C 418.539,27.5311 420.205,28.8645 422.5,29.5C 424.262,30.2623 425.262,31.5956 425.5,33.5C 425.539,34.5832 425.873,35.5832 426.5,36.5C 429.884,40.2125 433.217,43.8792 436.5,47.5C 437.674,48.5137 438.34,49.847 438.5,51.5C 440.293,58.2397 443.293,64.2397 447.5,69.5C 448.434,70.5676 448.768,71.901 448.5,73.5C 448.41,76.1522 449.076,78.4855 450.5,80.5C 451.434,81.5676 451.768,82.901 451.5,84.5C 451.335,88.1817 451.501,91.8484 452,95.5C 452.232,96.7375 452.732,97.7375 453.5,98.5C 453.5,115.833 453.5,133.167 453.5,150.5C 461.703,151.224 470.036,151.89 478.5,152.5C 478.833,152.5 479.167,152.5 479.5,152.5C 480.775,155.133 482.108,157.8 483.5,160.5C 484.667,228.164 484.833,295.831 484,363.5C 482.731,364.905 482.231,366.571 482.5,368.5C 481.167,368.5 479.833,368.5 478.5,368.5C 478.5,369.833 478.5,371.167 478.5,372.5C 391.833,372.667 305.166,372.5 218.5,372C 216.534,369.856 214.2,368.356 211.5,367.5C 211.5,367.167 211.5,366.833 211.5,366.5C 211.33,365.178 211.663,364.011 212.5,363C 211.17,329.713 210.503,296.213 210.5,262.5C 210.667,229.167 210.833,195.833 211,162.5C 212.498,159.505 213.998,156.505 215.5,153.5C 224.698,152.873 233.865,152.206 243,151.5C 243.048,126.794 243.881,102.127 245.5,77.5C 245.328,76.5084 245.662,75.8417 246.5,75.5C 247.649,75.2089 248.316,74.3756 248.5,73C 249.617,70.2687 250.283,67.4353 250.5,64.5C 252.163,62.6272 253.829,60.6272 255.5,58.5C 256.184,53.6612 258.351,49.6612 262,46.5C 262.608,44.8455 263.108,43.1789 263.5,41.5C 263.5,41.1667 263.5,40.8333 263.5,40.5C 267.311,38.564 269.978,35.564 271.5,31.5C 277.007,24.6534 283.674,19.3201 291.5,15.5C 292.873,15.6567 294.207,15.49 295.5,15C 297.833,13.3333 300.167,11.6667 302.5,10C 307.154,8.66605 311.487,6.83272 315.5,4.5C 318.187,4.66409 320.854,4.49742 323.5,4C 326.915,2.35396 330.248,0.85396 333.5,-0.5 Z M 373.5,31.5 C 383.749,35.9651 393.083,41.9651 401.5,49.5C 402.5,51.1667 403.833,52.5 405.5,53.5C 407.817,57.1464 410.484,60.4797 413.5,63.5C 414.742,67.6553 416.742,71.322 419.5,74.5C 420.267,78.3269 421.267,81.9936 422.5,85.5C 423.524,90.4548 424.357,95.4548 425,100.5C 425.5,117.163 425.667,133.83 425.5,150.5C 374.167,150.5 322.833,150.5 271.5,150.5C 271.333,130.497 271.5,110.497 272,90.5C 274.186,80.4297 278.019,71.0963 283.5,62.5C 283.5,62.1667 283.5,61.8333 283.5,61.5C 288.611,55.6007 293.944,49.934 299.5,44.5C 300.167,44.5 300.5,44.1667 300.5,43.5C 303.135,42.1891 305.469,40.5224 307.5,38.5C 307.833,38.5 308.167,38.5 308.5,38.5C 312.46,36.8623 316.126,34.8623 319.5,32.5C 321.216,32.3713 322.883,32.038 324.5,31.5C 340.813,26.2283 357.147,26.2283 373.5,31.5 Z M 361.5,220.5 C 365.456,222.788 368.789,225.788 371.5,229.5C 380.224,246.604 376.724,260.604 361,271.5C 360.667,284.833 360.333,298.167 360,311.5C 359.209,312.745 358.709,314.078 358.5,315.5C 358.5,315.833 358.5,316.167 358.5,316.5C 355.362,318.818 351.862,320.485 348,321.5C 344.165,320.499 340.665,318.832 337.5,316.5C 336.773,314.046 335.773,311.713 334.5,309.5C 334.832,296.483 334.499,283.483 333.5,270.5C 332.14,269.82 330.807,269.153 329.5,268.5C 318.899,257.869 316.566,245.536 322.5,231.5C 324.471,229.192 326.471,226.858 328.5,224.5C 338.7,217.033 349.7,215.699 361.5,220.5 Z"/></g>
<g><path style="opacity:0.663" fill="#e36464" d="M 362.5,-0.5 C 363.5,-0.5 364.5,-0.5 365.5,-0.5C 368.313,0.0818353 370.98,1.08184 373.5,2.5C 370.161,2.11027 366.827,1.61027 363.5,1C 362.944,0.617425 362.611,0.117425 362.5,-0.5 Z"/></g>
<g><path style="opacity:1" fill="#e7333a" d="M 330.5,-0.5 C 331.5,-0.5 332.5,-0.5 333.5,-0.5C 330.248,0.85396 326.915,2.35396 323.5,4C 320.854,4.49742 318.187,4.66409 315.5,4.5C 320.313,2.22912 325.313,0.562454 330.5,-0.5 Z"/></g>
<g><path style="opacity:0.757" fill="#e66167" d="M 394.5,9.5 C 397.54,10.6803 400.206,12.347 402.5,14.5C 400.188,13.6805 397.854,12.8471 395.5,12C 394.748,11.3292 394.414,10.4959 394.5,9.5 Z"/></g>
<g><path style="opacity:1" fill="#e13b42" d="M 315.5,4.5 C 311.487,6.83272 307.154,8.66605 302.5,10C 300.167,11.6667 297.833,13.3333 295.5,15C 294.207,15.49 292.873,15.6567 291.5,15.5C 298.503,9.93083 306.503,6.26416 315.5,4.5 Z"/></g>
<g><path style="opacity:0.335" fill="#db333a" d="M 373.5,31.5 C 357.147,26.2283 340.813,26.2283 324.5,31.5C 324.5,30.5 324.5,29.5 324.5,28.5C 336.652,26.494 348.985,25.994 361.5,27C 365.878,27.7667 369.878,29.2667 373.5,31.5 Z"/></g>
<g><path style="opacity:0.82" fill="#eb7d7d" d="M 417.5,25.5 C 419.754,26.1237 421.421,27.457 422.5,29.5C 420.205,28.8645 418.539,27.5311 417.5,25.5 Z"/></g>
<g><path style="opacity:0.835" fill="#e2474f" d="M 373.5,31.5 C 377.562,32.3591 381.562,33.5258 385.5,35C 390.5,38.8333 395.5,42.6667 400.5,46.5C 401.386,47.325 401.719,48.325 401.5,49.5C 393.083,41.9651 383.749,35.9651 373.5,31.5 Z"/></g>
<g><path style="opacity:0.898" fill="#ec5b5e" d="M 319.5,32.5 C 316.126,34.8623 312.46,36.8623 308.5,38.5C 308.721,37.2652 309.388,36.2652 310.5,35.5C 313.418,34.1302 316.418,33.1302 319.5,32.5 Z"/></g>
<g><path style="opacity:0.984" fill="#e7515a" d="M 425.5,33.5 C 430.129,37.432 433.796,42.0986 436.5,47.5C 433.217,43.8792 429.884,40.2125 426.5,36.5C 425.873,35.5832 425.539,34.5832 425.5,33.5 Z"/></g>
<g><path style="opacity:0.71" fill="#ea6669" d="M 271.5,31.5 C 269.978,35.564 267.311,38.564 263.5,40.5C 265.824,37.177 268.491,34.177 271.5,31.5 Z"/></g>
<g><path style="opacity:1" fill="#e73a3f" d="M 307.5,38.5 C 305.469,40.5224 303.135,42.1891 300.5,43.5C 300.5,42.1667 300.5,40.8333 300.5,39.5C 302.861,39.3259 305.194,38.9926 307.5,38.5 Z"/></g>
<g><path style="opacity:1" fill="#ed4244" d="M 299.5,44.5 C 293.944,49.934 288.611,55.6007 283.5,61.5C 283.5,59.8333 283.5,58.1667 283.5,56.5C 284.5,56.5 285.5,56.5 286.5,56.5C 286.557,51.9327 288.89,49.0994 293.5,48C 294.337,46.9887 294.67,45.8221 294.5,44.5C 296.167,44.5 297.833,44.5 299.5,44.5 Z"/></g>
<g><path style="opacity:1" fill="#e83e45" d="M 263.5,41.5 C 263.108,43.1789 262.608,44.8455 262,46.5C 258.351,49.6612 256.184,53.6612 255.5,58.5C 253.829,60.6272 252.163,62.6272 250.5,64.5C 253.051,55.7209 257.384,48.0543 263.5,41.5 Z"/></g>
<g><path style="opacity:0.996" fill="#e84048" d="M 405.5,53.5 C 407.117,54.038 408.784,54.3713 410.5,54.5C 411.486,57.493 412.486,60.493 413.5,63.5C 410.484,60.4797 407.817,57.1464 405.5,53.5 Z"/></g>
<g><path style="opacity:1" fill="#e94349" d="M 438.5,51.5 C 442.519,56.8717 445.519,62.8717 447.5,69.5C 443.293,64.2397 440.293,58.2397 438.5,51.5 Z"/></g>
<g><path style="opacity:1" fill="#f36268" d="M 283.5,62.5 C 278.019,71.0963 274.186,80.4297 272,90.5C 271.5,110.497 271.333,130.497 271.5,150.5C 270.503,132.341 270.17,114.008 270.5,95.5C 270.941,86.6851 273.107,78.3517 277,70.5C 277.495,68.5273 277.662,66.5273 277.5,64.5C 279.5,63.8333 281.5,63.1667 283.5,62.5 Z"/></g>
<g><path style="opacity:1" fill="#e33c44" d="M 250.5,64.5 C 250.283,67.4353 249.617,70.2687 248.5,73C 248.316,74.3756 247.649,75.2089 246.5,75.5C 247.025,71.467 248.358,67.8004 250.5,64.5 Z"/></g>
<g><path style="opacity:0.596" fill="#e3555d" d="M 419.5,74.5 C 421.874,77.6859 422.874,81.3526 422.5,85.5C 421.267,81.9936 420.267,78.3269 419.5,74.5 Z"/></g>
<g><path style="opacity:0.443" fill="#e66f71" d="M 448.5,73.5 C 449.924,75.5145 450.59,77.8478 450.5,80.5C 449.076,78.4855 448.41,76.1522 448.5,73.5 Z"/></g>
<g><path style="opacity:0.725" fill="#e15f5f" d="M 451.5,84.5 C 452.644,88.9637 453.31,93.6304 453.5,98.5C 452.732,97.7375 452.232,96.7375 452,95.5C 451.501,91.8484 451.335,88.1817 451.5,84.5 Z"/></g>
<g><path style="opacity:0.708" fill="#db2337" d="M 245.5,77.5 C 243.881,102.127 243.048,126.794 243,151.5C 233.865,152.206 224.698,152.873 215.5,153.5C 216.058,152.21 217.058,151.377 218.5,151C 226.493,150.5 234.493,150.334 242.5,150.5C 242.333,129.497 242.5,108.497 243,87.5C 243.738,84.0087 244.571,80.6754 245.5,77.5 Z"/></g>
<g><path style="opacity:0.461" fill="#c83445" d="M 453.5,150.5 C 461.507,150.334 469.507,150.5 477.5,151C 478.056,151.383 478.389,151.883 478.5,152.5C 470.036,151.89 461.703,151.224 453.5,150.5 Z"/></g>
<g><path style="opacity:1" fill="#db182b" d="M 422.5,85.5 C 423.474,86.635 424.641,87.635 426,88.5C 426.826,109.74 426.66,130.906 425.5,152C 373.497,152.833 321.497,152.667 269.5,151.5C 268.846,142.045 268.512,132.545 268.5,123C 268.502,113.475 269.168,104.308 270.5,95.5C 270.17,114.008 270.503,132.341 271.5,150.5C 322.833,150.5 374.167,150.5 425.5,150.5C 425.667,133.83 425.5,117.163 425,100.5C 424.357,95.4548 423.524,90.4548 422.5,85.5 Z"/></g>
<g><path style="opacity:0.071" fill="#ffb8c2" d="M 483.5,156.5 C 484.906,156.973 485.573,157.973 485.5,159.5C 484.094,159.027 483.427,158.027 483.5,156.5 Z"/></g>
<g><path style="opacity:0.898" fill="#e6474a" d="M 479.5,152.5 C 481.341,153.402 482.674,154.736 483.5,156.5C 483.427,158.027 484.094,159.027 485.5,159.5C 486.66,227.126 486.826,294.793 486,362.5C 485.182,367.151 482.682,370.485 478.5,372.5C 478.5,371.167 478.5,369.833 478.5,368.5C 479.833,368.5 481.167,368.5 482.5,368.5C 482.231,366.571 482.731,364.905 484,363.5C 484.833,295.831 484.667,228.164 483.5,160.5C 482.108,157.8 480.775,155.133 479.5,152.5 Z"/></g>
<g><path style="opacity:0.541" fill="#d7293b" d="M 215.5,153.5 C 213.998,156.505 212.498,159.505 211,162.5C 210.833,195.833 210.667,229.167 210.5,262.5C 210.503,296.213 211.17,329.713 212.5,363C 211.663,364.011 211.33,365.178 211.5,366.5C 210.778,366.082 210.278,365.416 210,364.5C 209.333,296.167 209.333,227.833 210,159.5C 211.044,158.377 211.71,157.044 212,155.5C 212.816,154.177 213.983,153.511 215.5,153.5 Z"/></g>
<g><path style="opacity:1" fill="#ec4b4f" d="M 361.5,220.5 C 349.7,215.699 338.7,217.033 328.5,224.5C 328.286,222.856 328.62,221.356 329.5,220C 338.916,216.865 348.583,215.865 358.5,217C 360.063,217.759 361.063,218.926 361.5,220.5 Z"/></g>
<g><path style="opacity:1" fill="#eb4547" d="M 371.5,229.5 C 372.496,229.414 373.329,229.748 374,230.5C 374.803,233.244 375.803,235.911 377,238.5C 377.333,238.167 377.667,237.833 378,237.5C 379.184,247.72 377.517,257.386 373,266.5C 369.72,268.271 366.554,270.271 363.5,272.5C 362.833,286.5 362.167,300.5 361.5,314.5C 360.583,315.127 359.583,315.461 358.5,315.5C 358.709,314.078 359.209,312.745 360,311.5C 360.333,298.167 360.667,284.833 361,271.5C 376.724,260.604 380.224,246.604 371.5,229.5 Z"/></g>
<g><path style="opacity:1" fill="#f4212b" d="M 322.5,231.5 C 316.566,245.536 318.899,257.869 329.5,268.5C 329.787,270.121 330.787,271.121 332.5,271.5C 333.167,284.327 333.833,296.994 334.5,309.5C 335.773,311.713 336.773,314.046 337.5,316.5C 335.807,315.525 334.307,314.192 333,312.5C 332.833,299.154 332.333,285.821 331.5,272.5C 330.914,272.291 330.414,271.957 330,271.5C 327.833,314.133 327.333,314.133 328.5,271.5C 326.096,270.65 323.763,269.65 321.5,268.5C 320.266,266.602 320.599,264.935 322.5,263.5C 320.828,260.163 319.161,256.83 317.5,253.5C 316.476,254.853 315.143,255.52 313.5,255.5C 313.22,252.612 314.553,251.112 317.5,251C 316.187,245.025 316.854,239.192 319.5,233.5C 320.518,232.807 321.518,232.141 322.5,231.5 Z"/></g>
<g><path style="opacity:0.6" fill="#c43241" d="M 329.5,268.5 C 330.807,269.153 332.14,269.82 333.5,270.5C 334.499,283.483 334.832,296.483 334.5,309.5C 333.833,296.994 333.167,284.327 332.5,271.5C 330.787,271.121 329.787,270.121 329.5,268.5 Z"/></g>
<g><path style="opacity:1" fill="#ea3a3e" d="M 337.5,316.5 C 340.665,318.832 344.165,320.499 348,321.5C 351.862,320.485 355.362,318.818 358.5,316.5C 357.305,319.211 355.472,321.544 353,323.5C 349.21,322.864 345.377,322.197 341.5,321.5C 339.596,320.234 338.263,318.567 337.5,316.5 Z"/></g>
<g><path style="opacity:0.843" fill="#ec4d4d" d="M 211.5,367.5 C 214.2,368.356 216.534,369.856 218.5,372C 305.166,372.5 391.833,372.667 478.5,372.5C 477.167,373.167 475.833,373.833 474.5,374.5C 389.833,374.5 305.167,374.5 220.5,374.5C 216.993,372.902 213.993,370.569 211.5,367.5 Z"/></g>
</svg>
